<svg xmlns="http://www.w3.org/2000/svg" xmlns:xlink="http://www.w3.org/1999/xlink" contentStyleType="text/css" height="1610px" preserveAspectRatio="none" style="width:1587px;height:1610px;background:#282828;" version="1.1" viewBox="0 0 1587 1610" width="1587px" zoomAndPan="magnify"><defs/><g><rect fill="#282828" height="1610" style="stroke:none;stroke-width:1.0;" width="1587" x="0" y="0"/><text fill="#FFB000" font-family="Verdana" font-size="22" font-weight="bold" lengthAdjust="spacing" textLength="628" x="475.25" y="37.1182">BoletaMaster &#8212; Diagrama de clases (ALTO NIVEL)</text><!--cluster presentacion--><g id="cluster_presentacion"><rect fill="#282828" height="80" rx="2.5" ry="2.5" style="stroke:#FFB000;stroke-width:1.0;" width="116" x="18.5" y="835.7373"/><text fill="#FFB000" font-family="Verdana" font-size="14" font-weight="bold" lengthAdjust="spacing" textLength="100" x="26.5" y="851.8125">presentacion</text></g><!--cluster persistencia--><g id="cluster_persistencia"><rect fill="#282828" height="80" rx="2.5" ry="2.5" style="stroke:#FFB000;stroke-width:1.0;" width="189" x="283" y="835.7373"/><text fill="#FFB000" font-family="Verdana" font-size="14" font-weight="bold" lengthAdjust="spacing" textLength="92" x="331.5" y="851.8125">persistencia</text></g><!--cluster logica--><g id="cluster_logica"><rect fill="#282828" height="369" rx="2.5" ry="2.5" style="stroke:#FFB000;stroke-width:1.0;" width="1566" x="15.5" y="939.7373"/><text fill="#FFB000" font-family="Verdana" font-size="14" font-weight="bold" lengthAdjust="spacing" textLength="45" x="776" y="955.8125">logica</text></g><!--cluster tiquetes--><g id="cluster_tiquetes"><rect fill="#282828" height="272" rx="2.5" ry="2.5" style="stroke:#FFB000;stroke-width:1.0;" width="572" x="751.5" y="1332.7373"/><text fill="#FFB000" font-family="Verdana" font-size="14" font-weight="bold" lengthAdjust="spacing" textLength="62" x="1006.5" y="1348.8125">tiquetes</text></g><!--cluster excepciones--><g id="cluster_excepciones"><rect fill="#282828" height="752" rx="2.5" ry="2.5" style="stroke:#FFB000;stroke-width:1.0;" width="528.5" x="12" y="59.7373"/><text fill="#FFB000" font-family="Verdana" font-size="14" font-weight="bold" lengthAdjust="spacing" textLength="94" x="229.25" y="75.8125">excepciones</text></g><!--class Consola--><g id="elem_Consola"><rect codeLine="22" fill="#282828" height="28" id="Consola" rx="2.5" ry="2.5" style="stroke:#FFB000;stroke-width:1.0;" width="84" x="34.5" y="871.7373"/><ellipse cx="47.5" cy="885.7373" fill="#282828" rx="9" ry="9" style="stroke:#FFB000;stroke-width:1.0;"/><path d="M50.2656,887.2686 L52.6563,888.0186 Q52.1094,890.0029 50.8281,890.9717 Q49.5625,891.9404 47.5938,891.9404 Q45.1719,891.9404 43.6094,890.2842 Q42.0625,888.6279 42.0625,885.7529 Q42.0625,882.7217 43.625,881.0498 Q45.1875,879.3623 47.75,879.3623 Q49.9844,879.3623 51.375,880.6748 Q52.2031,881.4561 52.625,882.9248 L50.1875,883.5029 Q49.9688,882.5498 49.2813,882.0029 Q48.6094,881.4561 47.625,881.4561 Q46.2656,881.4561 45.4219,882.4404 Q44.5938,883.4092 44.5938,885.5811 Q44.5938,887.8779 45.4219,888.8623 Q46.25,889.8467 47.5781,889.8467 Q48.5625,889.8467 49.2656,889.2217 Q49.9688,888.5967 50.2656,887.2686 Z " fill="#FFB000"/><text fill="#FFB000" font-family="Verdana" font-size="14" lengthAdjust="spacing" textLength="56" x="59.5" y="891.3052">Consola</text></g><!--class ArchivoSerializable--><g id="elem_ArchivoSerializable"><rect codeLine="26" fill="#282828" height="28" id="ArchivoSerializable" rx="2.5" ry="2.5" style="stroke:#FFB000;stroke-width:1.0;" width="157" x="299" y="871.7373"/><ellipse cx="312" cy="885.7373" fill="#282828" rx="9" ry="9" style="stroke:#FFB000;stroke-width:1.0;"/><path d="M314.7656,887.2686 L317.1563,888.0186 Q316.6094,890.0029 315.3281,890.9717 Q314.0625,891.9404 312.0938,891.9404 Q309.6719,891.9404 308.1094,890.2842 Q306.5625,888.6279 306.5625,885.7529 Q306.5625,882.7217 308.125,881.0498 Q309.6875,879.3623 312.25,879.3623 Q314.4844,879.3623 315.875,880.6748 Q316.7031,881.4561 317.125,882.9248 L314.6875,883.5029 Q314.4688,882.5498 313.7813,882.0029 Q313.1094,881.4561 312.125,881.4561 Q310.7656,881.4561 309.9219,882.4404 Q309.0938,883.4092 309.0938,885.5811 Q309.0938,887.8779 309.9219,888.8623 Q310.75,889.8467 312.0781,889.8467 Q313.0625,889.8467 313.7656,889.2217 Q314.4688,888.5967 314.7656,887.2686 Z " fill="#FFB000"/><text fill="#FFB000" font-family="Verdana" font-size="14" lengthAdjust="spacing" textLength="129" x="324" y="891.3052">ArchivoSerializable</text></g><!--class Usuario--><g id="elem_Usuario"><rect codeLine="37" fill="#282828" height="28" id="Usuario" rx="2.5" ry="2.5" style="stroke:#FFB000;stroke-width:1.0;" width="81" x="1150.5" y="1254.7373"/><ellipse cx="1163.5" cy="1268.7373" fill="#282828" rx="9" ry="9" style="stroke:#FFB000;stroke-width:1.0;"/><path d="M1170.2031,1273.7373 L1167.5313,1273.7373 L1166.4688,1270.9717 L1161.6094,1270.9717 L1160.6094,1273.7373 L1158,1273.7373 L1162.7344,1261.5654 L1165.3438,1261.5654 L1170.2031,1273.7373 Z M1165.6875,1268.9248 L1164.0156,1264.4092 L1162.3594,1268.9248 L1165.6875,1268.9248 Z " fill="#FFB000"/><text fill="#FFB000" font-family="Verdana" font-size="14" font-style="italic" lengthAdjust="spacing" textLength="53" x="1175.5" y="1274.3052">Usuario</text></g><!--class Cliente--><g id="elem_Cliente"><rect codeLine="38" fill="#282828" height="28" id="Cliente" rx="2.5" ry="2.5" style="stroke:#FFB000;stroke-width:1.0;" width="75" x="1471" y="1254.7373"/><ellipse cx="1484" cy="1268.7373" fill="#282828" rx="9" ry="9" style="stroke:#FFB000;stroke-width:1.0;"/><path d="M1486.7656,1270.2686 L1489.1563,1271.0186 Q1488.6094,1273.0029 1487.3281,1273.9717 Q1486.0625,1274.9404 1484.0938,1274.9404 Q1481.6719,1274.9404 1480.1094,1273.2842 Q1478.5625,1271.6279 1478.5625,1268.7529 Q1478.5625,1265.7217 1480.125,1264.0498 Q1481.6875,1262.3623 1484.25,1262.3623 Q1486.4844,1262.3623 1487.875,1263.6748 Q1488.7031,1264.4561 1489.125,1265.9248 L1486.6875,1266.5029 Q1486.4688,1265.5498 1485.7813,1265.0029 Q1485.1094,1264.4561 1484.125,1264.4561 Q1482.7656,1264.4561 1481.9219,1265.4404 Q1481.0938,1266.4092 1481.0938,1268.5811 Q1481.0938,1270.8779 1481.9219,1271.8623 Q1482.75,1272.8467 1484.0781,1272.8467 Q1485.0625,1272.8467 1485.7656,1272.2217 Q1486.4688,1271.5967 1486.7656,1270.2686 Z " fill="#FFB000"/><text fill="#FFB000" font-family="Verdana" font-size="14" lengthAdjust="spacing" textLength="47" x="1496" y="1274.3052">Cliente</text></g><!--class Organizador--><g id="elem_Organizador"><rect codeLine="39" fill="#282828" height="28" id="Organizador" rx="2.5" ry="2.5" style="stroke:#FFB000;stroke-width:1.0;" width="114" x="1451.5" y="1191.7373"/><ellipse cx="1464.5" cy="1205.7373" fill="#282828" rx="9" ry="9" style="stroke:#FFB000;stroke-width:1.0;"/><path d="M1467.2656,1207.2686 L1469.6563,1208.0186 Q1469.1094,1210.0029 1467.8281,1210.9717 Q1466.5625,1211.9404 1464.5938,1211.9404 Q1462.1719,1211.9404 1460.6094,1210.2842 Q1459.0625,1208.6279 1459.0625,1205.7529 Q1459.0625,1202.7217 1460.625,1201.0498 Q1462.1875,1199.3623 1464.75,1199.3623 Q1466.9844,1199.3623 1468.375,1200.6748 Q1469.2031,1201.4561 1469.625,1202.9248 L1467.1875,1203.5029 Q1466.9688,1202.5498 1466.2813,1202.0029 Q1465.6094,1201.4561 1464.625,1201.4561 Q1463.2656,1201.4561 1462.4219,1202.4404 Q1461.5938,1203.4092 1461.5938,1205.5811 Q1461.5938,1207.8779 1462.4219,1208.8623 Q1463.25,1209.8467 1464.5781,1209.8467 Q1465.5625,1209.8467 1466.2656,1209.2217 Q1466.9688,1208.5967 1467.2656,1207.2686 Z " fill="#FFB000"/><text fill="#FFB000" font-family="Verdana" font-size="14" lengthAdjust="spacing" textLength="86" x="1476.5" y="1211.3052">Organizador</text></g><!--class Administrador--><g id="elem_Administrador"><rect codeLine="40" fill="#282828" height="28" id="Administrador" rx="2.5" ry="2.5" style="stroke:#FFB000;stroke-width:1.0;" width="127" x="1127.5" y="1089.7373"/><ellipse cx="1140.5" cy="1103.7373" fill="#282828" rx="9" ry="9" style="stroke:#FFB000;stroke-width:1.0;"/><path d="M1143.2656,1105.2686 L1145.6563,1106.0186 Q1145.1094,1108.0029 1143.8281,1108.9717 Q1142.5625,1109.9404 1140.5938,1109.9404 Q1138.1719,1109.9404 1136.6094,1108.2842 Q1135.0625,1106.6279 1135.0625,1103.7529 Q1135.0625,1100.7217 1136.625,1099.0498 Q1138.1875,1097.3623 1140.75,1097.3623 Q1142.9844,1097.3623 1144.375,1098.6748 Q1145.2031,1099.4561 1145.625,1100.9248 L1143.1875,1101.5029 Q1142.9688,1100.5498 1142.2813,1100.0029 Q1141.6094,1099.4561 1140.625,1099.4561 Q1139.2656,1099.4561 1138.4219,1100.4404 Q1137.5938,1101.4092 1137.5938,1103.5811 Q1137.5938,1105.8779 1138.4219,1106.8623 Q1139.25,1107.8467 1140.5781,1107.8467 Q1141.5625,1107.8467 1142.2656,1107.2217 Q1142.9688,1106.5967 1143.2656,1105.2686 Z " fill="#FFB000"/><text fill="#FFB000" font-family="Verdana" font-size="14" lengthAdjust="spacing" textLength="99" x="1152.5" y="1109.3052">Administrador</text></g><!--class BoletasMaster--><g id="elem_BoletasMaster"><rect codeLine="43" fill="#282828" height="28" id="BoletasMaster" rx="2.5" ry="2.5" style="stroke:#FFB000;stroke-width:1.0;" width="127" x="772.5" y="1034.7373"/><ellipse cx="785.5" cy="1048.7373" fill="#282828" rx="9" ry="9" style="stroke:#FFB000;stroke-width:1.0;"/><path d="M788.2656,1050.2686 L790.6563,1051.0186 Q790.1094,1053.0029 788.8281,1053.9717 Q787.5625,1054.9404 785.5938,1054.9404 Q783.1719,1054.9404 781.6094,1053.2842 Q780.0625,1051.6279 780.0625,1048.7529 Q780.0625,1045.7217 781.625,1044.0498 Q783.1875,1042.3623 785.75,1042.3623 Q787.9844,1042.3623 789.375,1043.6748 Q790.2031,1044.4561 790.625,1045.9248 L788.1875,1046.5029 Q787.9688,1045.5498 787.2813,1045.0029 Q786.6094,1044.4561 785.625,1044.4561 Q784.2656,1044.4561 783.4219,1045.4404 Q782.5938,1046.4092 782.5938,1048.5811 Q782.5938,1050.8779 783.4219,1051.8623 Q784.25,1052.8467 785.5781,1052.8467 Q786.5625,1052.8467 787.2656,1052.2217 Q787.9688,1051.5967 788.2656,1050.2686 Z " fill="#FFB000"/><text fill="#FFB000" font-family="Verdana" font-size="14" lengthAdjust="spacing" textLength="99" x="797.5" y="1054.3052">BoletasMaster</text></g><!--class Evento--><g id="elem_Evento"><rect codeLine="44" fill="#282828" height="28" id="Evento" rx="2.5" ry="2.5" style="stroke:#FFB000;stroke-width:1.0;" width="77" x="1152.5" y="1166.7373"/><ellipse cx="1165.5" cy="1180.7373" fill="#282828" rx="9" ry="9" style="stroke:#FFB000;stroke-width:1.0;"/><path d="M1168.2656,1182.2686 L1170.6563,1183.0186 Q1170.1094,1185.0029 1168.8281,1185.9717 Q1167.5625,1186.9404 1165.5938,1186.9404 Q1163.1719,1186.9404 1161.6094,1185.2842 Q1160.0625,1183.6279 1160.0625,1180.7529 Q1160.0625,1177.7217 1161.625,1176.0498 Q1163.1875,1174.3623 1165.75,1174.3623 Q1167.9844,1174.3623 1169.375,1175.6748 Q1170.2031,1176.4561 1170.625,1177.9248 L1168.1875,1178.5029 Q1167.9688,1177.5498 1167.2813,1177.0029 Q1166.6094,1176.4561 1165.625,1176.4561 Q1164.2656,1176.4561 1163.4219,1177.4404 Q1162.5938,1178.4092 1162.5938,1180.5811 Q1162.5938,1182.8779 1163.4219,1183.8623 Q1164.25,1184.8467 1165.5781,1184.8467 Q1166.5625,1184.8467 1167.2656,1184.2217 Q1167.9688,1183.5967 1168.2656,1182.2686 Z " fill="#FFB000"/><text fill="#FFB000" font-family="Verdana" font-size="14" lengthAdjust="spacing" textLength="49" x="1177.5" y="1186.3052">Evento</text></g><!--class Venue--><g id="elem_Venue"><rect codeLine="45" fill="#282828" height="28" id="Venue" rx="2.5" ry="2.5" style="stroke:#FFB000;stroke-width:1.0;" width="72" x="1472.5" y="1035.7373"/><ellipse cx="1485.5" cy="1049.7373" fill="#282828" rx="9" ry="9" style="stroke:#FFB000;stroke-width:1.0;"/><path d="M1488.2656,1051.2686 L1490.6563,1052.0186 Q1490.1094,1054.0029 1488.8281,1054.9717 Q1487.5625,1055.9404 1485.5938,1055.9404 Q1483.1719,1055.9404 1481.6094,1054.2842 Q1480.0625,1052.6279 1480.0625,1049.7529 Q1480.0625,1046.7217 1481.625,1045.0498 Q1483.1875,1043.3623 1485.75,1043.3623 Q1487.9844,1043.3623 1489.375,1044.6748 Q1490.2031,1045.4561 1490.625,1046.9248 L1488.1875,1047.5029 Q1487.9688,1046.5498 1487.2813,1046.0029 Q1486.6094,1045.4561 1485.625,1045.4561 Q1484.2656,1045.4561 1483.4219,1046.4404 Q1482.5938,1047.4092 1482.5938,1049.5811 Q1482.5938,1051.8779 1483.4219,1052.8623 Q1484.25,1053.8467 1485.5781,1053.8467 Q1486.5625,1053.8467 1487.2656,1053.2217 Q1487.9688,1052.5967 1488.2656,1051.2686 Z " fill="#FFB000"/><text fill="#FFB000" font-family="Verdana" font-size="14" lengthAdjust="spacing" textLength="44" x="1497.5" y="1055.3052">Venue</text></g><!--class Localidad--><g id="elem_Localidad"><rect codeLine="46" fill="#282828" height="28" id="Localidad" rx="2.5" ry="2.5" style="stroke:#FFB000;stroke-width:1.0;" width="92" x="790" y="985.7373"/><ellipse cx="803" cy="999.7373" fill="#282828" rx="9" ry="9" style="stroke:#FFB000;stroke-width:1.0;"/><path d="M805.7656,1001.2686 L808.1563,1002.0186 Q807.6094,1004.0029 806.3281,1004.9717 Q805.0625,1005.9404 803.0938,1005.9404 Q800.6719,1005.9404 799.1094,1004.2842 Q797.5625,1002.6279 797.5625,999.7529 Q797.5625,996.7217 799.125,995.0498 Q800.6875,993.3623 803.25,993.3623 Q805.4844,993.3623 806.875,994.6748 Q807.7031,995.4561 808.125,996.9248 L805.6875,997.5029 Q805.4688,996.5498 804.7813,996.0029 Q804.1094,995.4561 803.125,995.4561 Q801.7656,995.4561 800.9219,996.4404 Q800.0938,997.4092 800.0938,999.5811 Q800.0938,1001.8779 800.9219,1002.8623 Q801.75,1003.8467 803.0781,1003.8467 Q804.0625,1003.8467 804.7656,1003.2217 Q805.4688,1002.5967 805.7656,1001.2686 Z " fill="#FFB000"/><text fill="#FFB000" font-family="Verdana" font-size="14" lengthAdjust="spacing" textLength="64" x="815" y="1005.3052">Localidad</text></g><!--class Solicitud--><g id="elem_Solicitud"><rect codeLine="49" fill="#282828" height="28" id="Solicitud" rx="2.5" ry="2.5" style="stroke:#FFB000;stroke-width:1.0;" width="90" x="31.5" y="1194.7373"/><ellipse cx="44.5" cy="1208.7373" fill="#282828" rx="9" ry="9" style="stroke:#FFB000;stroke-width:1.0;"/><path d="M51.2031,1213.7373 L48.5313,1213.7373 L47.4688,1210.9717 L42.6094,1210.9717 L41.6094,1213.7373 L39,1213.7373 L43.7344,1201.5654 L46.3438,1201.5654 L51.2031,1213.7373 Z M46.6875,1208.9248 L45.0156,1204.4092 L43.3594,1208.9248 L46.6875,1208.9248 Z " fill="#FFB000"/><text fill="#FFB000" font-family="Verdana" font-size="14" font-style="italic" lengthAdjust="spacing" textLength="62" x="56.5" y="1214.3052">Solicitud</text></g><!--class SolicitudCalamidad--><g id="elem_SolicitudCalamidad"><rect codeLine="50" fill="#282828" height="28" id="SolicitudCalamidad" rx="2.5" ry="2.5" style="stroke:#FFB000;stroke-width:1.0;" width="158" x="556.5" y="1261.7373"/><ellipse cx="569.5" cy="1275.7373" fill="#282828" rx="9" ry="9" style="stroke:#FFB000;stroke-width:1.0;"/><path d="M572.2656,1277.2686 L574.6563,1278.0186 Q574.1094,1280.0029 572.8281,1280.9717 Q571.5625,1281.9404 569.5938,1281.9404 Q567.1719,1281.9404 565.6094,1280.2842 Q564.0625,1278.6279 564.0625,1275.7529 Q564.0625,1272.7217 565.625,1271.0498 Q567.1875,1269.3623 569.75,1269.3623 Q571.9844,1269.3623 573.375,1270.6748 Q574.2031,1271.4561 574.625,1272.9248 L572.1875,1273.5029 Q571.9688,1272.5498 571.2813,1272.0029 Q570.6094,1271.4561 569.625,1271.4561 Q568.2656,1271.4561 567.4219,1272.4404 Q566.5938,1273.4092 566.5938,1275.5811 Q566.5938,1277.8779 567.4219,1278.8623 Q568.25,1279.8467 569.5781,1279.8467 Q570.5625,1279.8467 571.2656,1279.2217 Q571.9688,1278.5967 572.2656,1277.2686 Z " fill="#FFB000"/><text fill="#FFB000" font-family="Verdana" font-size="14" lengthAdjust="spacing" textLength="130" x="581.5" y="1281.3052">SolicitudCalamidad</text></g><!--class SolicitudVenue--><g id="elem_SolicitudVenue"><rect codeLine="51" fill="#282828" height="28" id="SolicitudVenue" rx="2.5" ry="2.5" style="stroke:#FFB000;stroke-width:1.0;" width="131" x="312" y="1194.7373"/><ellipse cx="325" cy="1208.7373" fill="#282828" rx="9" ry="9" style="stroke:#FFB000;stroke-width:1.0;"/><path d="M327.7656,1210.2686 L330.1563,1211.0186 Q329.6094,1213.0029 328.3281,1213.9717 Q327.0625,1214.9404 325.0938,1214.9404 Q322.6719,1214.9404 321.1094,1213.2842 Q319.5625,1211.6279 319.5625,1208.7529 Q319.5625,1205.7217 321.125,1204.0498 Q322.6875,1202.3623 325.25,1202.3623 Q327.4844,1202.3623 328.875,1203.6748 Q329.7031,1204.4561 330.125,1205.9248 L327.6875,1206.5029 Q327.4688,1205.5498 326.7813,1205.0029 Q326.1094,1204.4561 325.125,1204.4561 Q323.7656,1204.4561 322.9219,1205.4404 Q322.0938,1206.4092 322.0938,1208.5811 Q322.0938,1210.8779 322.9219,1211.8623 Q323.75,1212.8467 325.0781,1212.8467 Q326.0625,1212.8467 326.7656,1212.2217 Q327.4688,1211.5967 327.7656,1210.2686 Z " fill="#FFB000"/><text fill="#FFB000" font-family="Verdana" font-size="14" lengthAdjust="spacing" textLength="103" x="337" y="1214.3052">SolicitudVenue</text></g><!--class SolicitudCancelacionEvento--><g id="elem_SolicitudCancelacionEvento"><rect codeLine="52" fill="#282828" height="28" id="SolicitudCancelacionEvento" rx="2.5" ry="2.5" style="stroke:#FFB000;stroke-width:1.0;" width="217" x="727.5" y="1150.7373"/><ellipse cx="740.5" cy="1164.7373" fill="#282828" rx="9" ry="9" style="stroke:#FFB000;stroke-width:1.0;"/><path d="M743.2656,1166.2686 L745.6563,1167.0186 Q745.1094,1169.0029 743.8281,1169.9717 Q742.5625,1170.9404 740.5938,1170.9404 Q738.1719,1170.9404 736.6094,1169.2842 Q735.0625,1167.6279 735.0625,1164.7529 Q735.0625,1161.7217 736.625,1160.0498 Q738.1875,1158.3623 740.75,1158.3623 Q742.9844,1158.3623 744.375,1159.6748 Q745.2031,1160.4561 745.625,1161.9248 L743.1875,1162.5029 Q742.9688,1161.5498 742.2813,1161.0029 Q741.6094,1160.4561 740.625,1160.4561 Q739.2656,1160.4561 738.4219,1161.4404 Q737.5938,1162.4092 737.5938,1164.5811 Q737.5938,1166.8779 738.4219,1167.8623 Q739.25,1168.8467 740.5781,1168.8467 Q741.5625,1168.8467 742.2656,1168.2217 Q742.9688,1167.5967 743.2656,1166.2686 Z " fill="#FFB000"/><text fill="#FFB000" font-family="Verdana" font-size="14" lengthAdjust="spacing" textLength="189" x="752.5" y="1170.3052">SolicitudCancelacionEvento</text></g><!--class Tiquete--><g id="elem_Tiquete"><rect codeLine="85" fill="#282828" height="28" id="Tiquete" rx="2.5" ry="2.5" style="stroke:#FFB000;stroke-width:1.0;" width="81" x="795.5" y="1370.7373"/><ellipse cx="808.5" cy="1384.7373" fill="#282828" rx="9" ry="9" style="stroke:#FFB000;stroke-width:1.0;"/><path d="M815.2031,1389.7373 L812.5313,1389.7373 L811.4688,1386.9717 L806.6094,1386.9717 L805.6094,1389.7373 L803,1389.7373 L807.7344,1377.5654 L810.3438,1377.5654 L815.2031,1389.7373 Z M810.6875,1384.9248 L809.0156,1380.4092 L807.3594,1384.9248 L810.6875,1384.9248 Z " fill="#FFB000"/><text fill="#FFB000" font-family="Verdana" font-size="14" font-style="italic" lengthAdjust="spacing" textLength="53" x="820.5" y="1390.3052">Tiquete</text></g><!--class TiqueteBasico--><g id="elem_TiqueteBasico"><rect codeLine="86" fill="#282828" height="28" id="TiqueteBasico" rx="2.5" ry="2.5" style="stroke:#FFB000;stroke-width:1.0;" width="125" x="1128.5" y="1464.7373"/><ellipse cx="1141.5" cy="1478.7373" fill="#282828" rx="9" ry="9" style="stroke:#FFB000;stroke-width:1.0;"/><path d="M1144.2656,1480.2686 L1146.6563,1481.0186 Q1146.1094,1483.0029 1144.8281,1483.9717 Q1143.5625,1484.9404 1141.5938,1484.9404 Q1139.1719,1484.9404 1137.6094,1483.2842 Q1136.0625,1481.6279 1136.0625,1478.7529 Q1136.0625,1475.7217 1137.625,1474.0498 Q1139.1875,1472.3623 1141.75,1472.3623 Q1143.9844,1472.3623 1145.375,1473.6748 Q1146.2031,1474.4561 1146.625,1475.9248 L1144.1875,1476.5029 Q1143.9688,1475.5498 1143.2813,1475.0029 Q1142.6094,1474.4561 1141.625,1474.4561 Q1140.2656,1474.4561 1139.4219,1475.4404 Q1138.5938,1476.4092 1138.5938,1478.5811 Q1138.5938,1480.8779 1139.4219,1481.8623 Q1140.25,1482.8467 1141.5781,1482.8467 Q1142.5625,1482.8467 1143.2656,1482.2217 Q1143.9688,1481.5967 1144.2656,1480.2686 Z " fill="#FFB000"/><text fill="#FFB000" font-family="Verdana" font-size="14" lengthAdjust="spacing" textLength="97" x="1153.5" y="1484.3052">TiqueteBasico</text></g><!--class TiqueteEnumerado--><g id="elem_TiqueteEnumerado"><rect codeLine="87" fill="#282828" height="28" id="TiqueteEnumerado" rx="2.5" ry="2.5" style="stroke:#FFB000;stroke-width:1.0;" width="160" x="1111" y="1416.7373"/><ellipse cx="1124" cy="1430.7373" fill="#282828" rx="9" ry="9" style="stroke:#FFB000;stroke-width:1.0;"/><path d="M1126.7656,1432.2686 L1129.1563,1433.0186 Q1128.6094,1435.0029 1127.3281,1435.9717 Q1126.0625,1436.9404 1124.0938,1436.9404 Q1121.6719,1436.9404 1120.1094,1435.2842 Q1118.5625,1433.6279 1118.5625,1430.7529 Q1118.5625,1427.7217 1120.125,1426.0498 Q1121.6875,1424.3623 1124.25,1424.3623 Q1126.4844,1424.3623 1127.875,1425.6748 Q1128.7031,1426.4561 1129.125,1427.9248 L1126.6875,1428.5029 Q1126.4688,1427.5498 1125.7813,1427.0029 Q1125.1094,1426.4561 1124.125,1426.4561 Q1122.7656,1426.4561 1121.9219,1427.4404 Q1121.0938,1428.4092 1121.0938,1430.5811 Q1121.0938,1432.8779 1121.9219,1433.8623 Q1122.75,1434.8467 1124.0781,1434.8467 Q1125.0625,1434.8467 1125.7656,1434.2217 Q1126.4688,1433.5967 1126.7656,1432.2686 Z " fill="#FFB000"/><text fill="#FFB000" font-family="Verdana" font-size="14" lengthAdjust="spacing" textLength="132" x="1136" y="1436.3052">TiqueteEnumerado</text></g><!--class TiqueteMultiple--><g id="elem_TiqueteMultiple"><rect codeLine="88" fill="#282828" height="28" id="TiqueteMultiple" rx="2.5" ry="2.5" style="stroke:#FFB000;stroke-width:1.0;" width="137" x="767.5" y="1512.7373"/><ellipse cx="780.5" cy="1526.7373" fill="#282828" rx="9" ry="9" style="stroke:#FFB000;stroke-width:1.0;"/><path d="M787.2031,1531.7373 L784.5313,1531.7373 L783.4688,1528.9717 L778.6094,1528.9717 L777.6094,1531.7373 L775,1531.7373 L779.7344,1519.5654 L782.3438,1519.5654 L787.2031,1531.7373 Z M782.6875,1526.9248 L781.0156,1522.4092 L779.3594,1526.9248 L782.6875,1526.9248 Z " fill="#FFB000"/><text fill="#FFB000" font-family="Verdana" font-size="14" font-style="italic" lengthAdjust="spacing" textLength="109" x="792.5" y="1532.3052">TiqueteMultiple</text></g><!--class TiqueteMultipleUnicoEvento--><g id="elem_TiqueteMultipleUnicoEvento"><rect codeLine="89" fill="#282828" height="28" id="TiqueteMultipleUnicoEvento" rx="2.5" ry="2.5" style="stroke:#FFB000;stroke-width:1.0;" width="219" x="1081.5" y="1560.7373"/><ellipse cx="1094.5" cy="1574.7373" fill="#282828" rx="9" ry="9" style="stroke:#FFB000;stroke-width:1.0;"/><path d="M1097.2656,1576.2686 L1099.6563,1577.0186 Q1099.1094,1579.0029 1097.8281,1579.9717 Q1096.5625,1580.9404 1094.5938,1580.9404 Q1092.1719,1580.9404 1090.6094,1579.2842 Q1089.0625,1577.6279 1089.0625,1574.7529 Q1089.0625,1571.7217 1090.625,1570.0498 Q1092.1875,1568.3623 1094.75,1568.3623 Q1096.9844,1568.3623 1098.375,1569.6748 Q1099.2031,1570.4561 1099.625,1571.9248 L1097.1875,1572.5029 Q1096.9688,1571.5498 1096.2813,1571.0029 Q1095.6094,1570.4561 1094.625,1570.4561 Q1093.2656,1570.4561 1092.4219,1571.4404 Q1091.5938,1572.4092 1091.5938,1574.5811 Q1091.5938,1576.8779 1092.4219,1577.8623 Q1093.25,1578.8467 1094.5781,1578.8467 Q1095.5625,1578.8467 1096.2656,1578.2217 Q1096.9688,1577.5967 1097.2656,1576.2686 Z " fill="#FFB000"/><text fill="#FFB000" font-family="Verdana" font-size="14" lengthAdjust="spacing" textLength="191" x="1106.5" y="1580.3052">TiqueteMultipleUnicoEvento</text></g><!--class TiqueteMultipleVariosEventos--><g id="elem_TiqueteMultipleVariosEventos"><rect codeLine="90" fill="#282828" height="28" id="TiqueteMultipleVariosEventos" rx="2.5" ry="2.5" style="stroke:#FFB000;stroke-width:1.0;" width="233" x="1074.5" y="1512.7373"/><ellipse cx="1087.5" cy="1526.7373" fill="#282828" rx="9" ry="9" style="stroke:#FFB000;stroke-width:1.0;"/><path d="M1090.2656,1528.2686 L1092.6563,1529.0186 Q1092.1094,1531.0029 1090.8281,1531.9717 Q1089.5625,1532.9404 1087.5938,1532.9404 Q1085.1719,1532.9404 1083.6094,1531.2842 Q1082.0625,1529.6279 1082.0625,1526.7529 Q1082.0625,1523.7217 1083.625,1522.0498 Q1085.1875,1520.3623 1087.75,1520.3623 Q1089.9844,1520.3623 1091.375,1521.6748 Q1092.2031,1522.4561 1092.625,1523.9248 L1090.1875,1524.5029 Q1089.9688,1523.5498 1089.2813,1523.0029 Q1088.6094,1522.4561 1087.625,1522.4561 Q1086.2656,1522.4561 1085.4219,1523.4404 Q1084.5938,1524.4092 1084.5938,1526.5811 Q1084.5938,1528.8779 1085.4219,1529.8623 Q1086.25,1530.8467 1087.5781,1530.8467 Q1088.5625,1530.8467 1089.2656,1530.2217 Q1089.9688,1529.5967 1090.2656,1528.2686 Z " fill="#FFB000"/><text fill="#FFB000" font-family="Verdana" font-size="14" lengthAdjust="spacing" textLength="205" x="1099.5" y="1532.3052">TiqueteMultipleVariosEventos</text></g><!--class TiqueteDeluxe--><g id="elem_TiqueteDeluxe"><rect codeLine="91" fill="#282828" height="28" id="TiqueteDeluxe" rx="2.5" ry="2.5" style="stroke:#FFB000;stroke-width:1.0;" width="128" x="1127" y="1368.7373"/><ellipse cx="1140" cy="1382.7373" fill="#282828" rx="9" ry="9" style="stroke:#FFB000;stroke-width:1.0;"/><path d="M1142.7656,1384.2686 L1145.1563,1385.0186 Q1144.6094,1387.0029 1143.3281,1387.9717 Q1142.0625,1388.9404 1140.0938,1388.9404 Q1137.6719,1388.9404 1136.1094,1387.2842 Q1134.5625,1385.6279 1134.5625,1382.7529 Q1134.5625,1379.7217 1136.125,1378.0498 Q1137.6875,1376.3623 1140.25,1376.3623 Q1142.4844,1376.3623 1143.875,1377.6748 Q1144.7031,1378.4561 1145.125,1379.9248 L1142.6875,1380.5029 Q1142.4688,1379.5498 1141.7813,1379.0029 Q1141.1094,1378.4561 1140.125,1378.4561 Q1138.7656,1378.4561 1137.9219,1379.4404 Q1137.0938,1380.4092 1137.0938,1382.5811 Q1137.0938,1384.8779 1137.9219,1385.8623 Q1138.75,1386.8467 1140.0781,1386.8467 Q1141.0625,1386.8467 1141.7656,1386.2217 Q1142.4688,1385.5967 1142.7656,1384.2686 Z " fill="#FFB000"/><text fill="#FFB000" font-family="Verdana" font-size="14" lengthAdjust="spacing" textLength="100" x="1152" y="1388.3052">TiqueteDeluxe</text></g><!--class Exception--><g id="elem_Exception"><rect codeLine="109" fill="#282828" height="28" id="Exception" rx="2.5" ry="2.5" style="stroke:#FFB000;stroke-width:1.0;" width="97" x="28" y="431.7373"/><ellipse cx="41" cy="445.7373" fill="#282828" rx="9" ry="9" style="stroke:#FFB000;stroke-width:1.0;"/><path d="M43.7656,447.2686 L46.1563,448.0186 Q45.6094,450.0029 44.3281,450.9717 Q43.0625,451.9404 41.0938,451.9404 Q38.6719,451.9404 37.1094,450.2842 Q35.5625,448.6279 35.5625,445.7529 Q35.5625,442.7217 37.125,441.0498 Q38.6875,439.3623 41.25,439.3623 Q43.4844,439.3623 44.875,440.6748 Q45.7031,441.4561 46.125,442.9248 L43.6875,443.5029 Q43.4688,442.5498 42.7813,442.0029 Q42.1094,441.4561 41.125,441.4561 Q39.7656,441.4561 38.9219,442.4404 Q38.0938,443.4092 38.0938,445.5811 Q38.0938,447.8779 38.9219,448.8623 Q39.75,449.8467 41.0781,449.8467 Q42.0625,449.8467 42.7656,449.2217 Q43.4688,448.5967 43.7656,447.2686 Z " fill="#FFB000"/><text fill="#FFB000" font-family="Verdana" font-size="14" lengthAdjust="spacing" textLength="69" x="53" y="451.3052">Exception</text></g><!--class TransferirTiqueteDeluxeException--><g id="elem_TransferirTiqueteDeluxeException"><rect codeLine="111" fill="#282828" height="28" id="TransferirTiqueteDeluxeException" rx="2.5" ry="2.5" style="stroke:#FFB000;stroke-width:1.0;" width="265" x="245" y="287.7373"/><ellipse cx="258" cy="301.7373" fill="#282828" rx="9" ry="9" style="stroke:#FFB000;stroke-width:1.0;"/><path d="M260.7656,303.2686 L263.1563,304.0186 Q262.6094,306.0029 261.3281,306.9717 Q260.0625,307.9404 258.0938,307.9404 Q255.6719,307.9404 254.1094,306.2842 Q252.5625,304.6279 252.5625,301.7529 Q252.5625,298.7217 254.125,297.0498 Q255.6875,295.3623 258.25,295.3623 Q260.4844,295.3623 261.875,296.6748 Q262.7031,297.4561 263.125,298.9248 L260.6875,299.5029 Q260.4688,298.5498 259.7813,298.0029 Q259.1094,297.4561 258.125,297.4561 Q256.7656,297.4561 255.9219,298.4404 Q255.0938,299.4092 255.0938,301.5811 Q255.0938,303.8779 255.9219,304.8623 Q256.75,305.8467 258.0781,305.8467 Q259.0625,305.8467 259.7656,305.2217 Q260.4688,304.5967 260.7656,303.2686 Z " fill="#FFB000"/><text fill="#FFB000" font-family="Verdana" font-size="14" lengthAdjust="spacing" textLength="237" x="270" y="307.3052">TransferirTiqueteDeluxeException</text></g><!--class SaldoInsuficienteException--><g id="elem_SaldoInsuficienteException"><rect codeLine="112" fill="#282828" height="28" id="SaldoInsuficienteException" rx="2.5" ry="2.5" style="stroke:#FFB000;stroke-width:1.0;" width="216" x="269.5" y="239.7373"/><ellipse cx="282.5" cy="253.7373" fill="#282828" rx="9" ry="9" style="stroke:#FFB000;stroke-width:1.0;"/><path d="M285.2656,255.2686 L287.6563,256.0186 Q287.1094,258.0029 285.8281,258.9717 Q284.5625,259.9404 282.5938,259.9404 Q280.1719,259.9404 278.6094,258.2842 Q277.0625,256.6279 277.0625,253.7529 Q277.0625,250.7217 278.625,249.0498 Q280.1875,247.3623 282.75,247.3623 Q284.9844,247.3623 286.375,248.6748 Q287.2031,249.4561 287.625,250.9248 L285.1875,251.5029 Q284.9688,250.5498 284.2813,250.0029 Q283.6094,249.4561 282.625,249.4561 Q281.2656,249.4561 280.4219,250.4404 Q279.5938,251.4092 279.5938,253.5811 Q279.5938,255.8779 280.4219,256.8623 Q281.25,257.8467 282.5781,257.8467 Q283.5625,257.8467 284.2656,257.2217 Q284.9688,256.5967 285.2656,255.2686 Z " fill="#FFB000"/><text fill="#FFB000" font-family="Verdana" font-size="14" lengthAdjust="spacing" textLength="188" x="294.5" y="259.3052">SaldoInsuficienteException</text></g><!--class TiqueteVencidoFecha--><g id="elem_TiqueteVencidoFecha"><rect codeLine="113" fill="#282828" height="28" id="TiqueteVencidoFecha" rx="2.5" ry="2.5" style="stroke:#FFB000;stroke-width:1.0;" width="175" x="290" y="191.7373"/><ellipse cx="303" cy="205.7373" fill="#282828" rx="9" ry="9" style="stroke:#FFB000;stroke-width:1.0;"/><path d="M305.7656,207.2686 L308.1563,208.0186 Q307.6094,210.0029 306.3281,210.9717 Q305.0625,211.9404 303.0938,211.9404 Q300.6719,211.9404 299.1094,210.2842 Q297.5625,208.6279 297.5625,205.7529 Q297.5625,202.7217 299.125,201.0498 Q300.6875,199.3623 303.25,199.3623 Q305.4844,199.3623 306.875,200.6748 Q307.7031,201.4561 308.125,202.9248 L305.6875,203.5029 Q305.4688,202.5498 304.7813,202.0029 Q304.1094,201.4561 303.125,201.4561 Q301.7656,201.4561 300.9219,202.4404 Q300.0938,203.4092 300.0938,205.5811 Q300.0938,207.8779 300.9219,208.8623 Q301.75,209.8467 303.0781,209.8467 Q304.0625,209.8467 304.7656,209.2217 Q305.4688,208.5967 305.7656,207.2686 Z " fill="#FFB000"/><text fill="#FFB000" font-family="Verdana" font-size="14" lengthAdjust="spacing" textLength="147" x="315" y="211.3052">TiqueteVencidoFecha</text></g><!--class TiqueteUsadoException--><g id="elem_TiqueteUsadoException"><rect codeLine="114" fill="#282828" height="28" id="TiqueteUsadoException" rx="2.5" ry="2.5" style="stroke:#FFB000;stroke-width:1.0;" width="193" x="281" y="143.7373"/><ellipse cx="294" cy="157.7373" fill="#282828" rx="9" ry="9" style="stroke:#FFB000;stroke-width:1.0;"/><path d="M296.7656,159.2686 L299.1563,160.0186 Q298.6094,162.0029 297.3281,162.9717 Q296.0625,163.9404 294.0938,163.9404 Q291.6719,163.9404 290.1094,162.2842 Q288.5625,160.6279 288.5625,157.7529 Q288.5625,154.7217 290.125,153.0498 Q291.6875,151.3623 294.25,151.3623 Q296.4844,151.3623 297.875,152.6748 Q298.7031,153.4561 299.125,154.9248 L296.6875,155.5029 Q296.4688,154.5498 295.7813,154.0029 Q295.1094,153.4561 294.125,153.4561 Q292.7656,153.4561 291.9219,154.4404 Q291.0938,155.4092 291.0938,157.5811 Q291.0938,159.8779 291.9219,160.8623 Q292.75,161.8467 294.0781,161.8467 Q295.0625,161.8467 295.7656,161.2217 Q296.4688,160.5967 296.7656,159.2686 Z " fill="#FFB000"/><text fill="#FFB000" font-family="Verdana" font-size="14" lengthAdjust="spacing" textLength="165" x="306" y="163.3052">TiqueteUsadoException</text></g><!--class TiqueteMultipleVENoExisteExcpetion--><g id="elem_TiqueteMultipleVENoExisteExcpetion"><rect codeLine="115" fill="#282828" height="28" id="TiqueteMultipleVENoExisteExcpetion" rx="2.5" ry="2.5" style="stroke:#FFB000;stroke-width:1.0;" width="282" x="236.5" y="95.7373"/><ellipse cx="249.5" cy="109.7373" fill="#282828" rx="9" ry="9" style="stroke:#FFB000;stroke-width:1.0;"/><path d="M252.2656,111.2686 L254.6563,112.0186 Q254.1094,114.0029 252.8281,114.9717 Q251.5625,115.9404 249.5938,115.9404 Q247.1719,115.9404 245.6094,114.2842 Q244.0625,112.6279 244.0625,109.7529 Q244.0625,106.7217 245.625,105.0498 Q247.1875,103.3623 249.75,103.3623 Q251.9844,103.3623 253.375,104.6748 Q254.2031,105.4561 254.625,106.9248 L252.1875,107.5029 Q251.9688,106.5498 251.2813,106.0029 Q250.6094,105.4561 249.625,105.4561 Q248.2656,105.4561 247.4219,106.4404 Q246.5938,107.4092 246.5938,109.5811 Q246.5938,111.8779 247.4219,112.8623 Q248.25,113.8467 249.5781,113.8467 Q250.5625,113.8467 251.2656,113.2217 Q251.9688,112.5967 252.2656,111.2686 Z " fill="#FFB000"/><text fill="#FFB000" font-family="Verdana" font-size="14" lengthAdjust="spacing" textLength="254" x="261.5" y="115.3052">TiqueteMultipleVENoExisteExcpetion</text></g><!--class PasswordIncorrectoException--><g id="elem_PasswordIncorrectoException"><rect codeLine="116" fill="#282828" height="28" id="PasswordIncorrectoException" rx="2.5" ry="2.5" style="stroke:#FFB000;stroke-width:1.0;" width="236" x="259.5" y="767.7373"/><ellipse cx="272.5" cy="781.7373" fill="#282828" rx="9" ry="9" style="stroke:#FFB000;stroke-width:1.0;"/><path d="M275.2656,783.2686 L277.6563,784.0186 Q277.1094,786.0029 275.8281,786.9717 Q274.5625,787.9404 272.5938,787.9404 Q270.1719,787.9404 268.6094,786.2842 Q267.0625,784.6279 267.0625,781.7529 Q267.0625,778.7217 268.625,777.0498 Q270.1875,775.3623 272.75,775.3623 Q274.9844,775.3623 276.375,776.6748 Q277.2031,777.4561 277.625,778.9248 L275.1875,779.5029 Q274.9688,778.5498 274.2813,778.0029 Q273.6094,777.4561 272.625,777.4561 Q271.2656,777.4561 270.4219,778.4404 Q269.5938,779.4092 269.5938,781.5811 Q269.5938,783.8779 270.4219,784.8623 Q271.25,785.8467 272.5781,785.8467 Q273.5625,785.8467 274.2656,785.2217 Q274.9688,784.5967 275.2656,783.2686 Z " fill="#FFB000"/><text fill="#FFB000" font-family="Verdana" font-size="14" lengthAdjust="spacing" textLength="208" x="284.5" y="787.3052">PasswordIncorrectoException</text></g><!--class ReembolsoNoPermitidoException--><g id="elem_ReembolsoNoPermitidoException"><rect codeLine="117" fill="#282828" height="28" id="ReembolsoNoPermitidoException" rx="2.5" ry="2.5" style="stroke:#FFB000;stroke-width:1.0;" width="258" x="248.5" y="719.7373"/><ellipse cx="261.5" cy="733.7373" fill="#282828" rx="9" ry="9" style="stroke:#FFB000;stroke-width:1.0;"/><path d="M264.2656,735.2686 L266.6563,736.0186 Q266.1094,738.0029 264.8281,738.9717 Q263.5625,739.9404 261.5938,739.9404 Q259.1719,739.9404 257.6094,738.2842 Q256.0625,736.6279 256.0625,733.7529 Q256.0625,730.7217 257.625,729.0498 Q259.1875,727.3623 261.75,727.3623 Q263.9844,727.3623 265.375,728.6748 Q266.2031,729.4561 266.625,730.9248 L264.1875,731.5029 Q263.9688,730.5498 263.2813,730.0029 Q262.6094,729.4561 261.625,729.4561 Q260.2656,729.4561 259.4219,730.4404 Q258.5938,731.4092 258.5938,733.5811 Q258.5938,735.8779 259.4219,736.8623 Q260.25,737.8467 261.5781,737.8467 Q262.5625,737.8467 263.2656,737.2217 Q263.9688,736.5967 264.2656,735.2686 Z " fill="#FFB000"/><text fill="#FFB000" font-family="Verdana" font-size="14" lengthAdjust="spacing" textLength="230" x="273.5" y="739.3052">ReembolsoNoPermitidoException</text></g><!--class CapacidadLocalidadExcedidaException--><g id="elem_CapacidadLocalidadExcedidaException"><rect codeLine="118" fill="#282828" height="28" id="CapacidadLocalidadExcedidaException" rx="2.5" ry="2.5" style="stroke:#FFB000;stroke-width:1.0;" width="294" x="230.5" y="671.7373"/><ellipse cx="243.5" cy="685.7373" fill="#282828" rx="9" ry="9" style="stroke:#FFB000;stroke-width:1.0;"/><path d="M246.2656,687.2686 L248.6563,688.0186 Q248.1094,690.0029 246.8281,690.9717 Q245.5625,691.9404 243.5938,691.9404 Q241.1719,691.9404 239.6094,690.2842 Q238.0625,688.6279 238.0625,685.7529 Q238.0625,682.7217 239.625,681.0498 Q241.1875,679.3623 243.75,679.3623 Q245.9844,679.3623 247.375,680.6748 Q248.2031,681.4561 248.625,682.9248 L246.1875,683.5029 Q245.9688,682.5498 245.2813,682.0029 Q244.6094,681.4561 243.625,681.4561 Q242.2656,681.4561 241.4219,682.4404 Q240.5938,683.4092 240.5938,685.5811 Q240.5938,687.8779 241.4219,688.8623 Q242.25,689.8467 243.5781,689.8467 Q244.5625,689.8467 245.2656,689.2217 Q245.9688,688.5967 246.2656,687.2686 Z " fill="#FFB000"/><text fill="#FFB000" font-family="Verdana" font-size="14" lengthAdjust="spacing" textLength="266" x="255.5" y="691.3052">CapacidadLocalidadExcedidaException</text></g><!--class TiqueteMultipleUENoExisteExcpetion--><g id="elem_TiqueteMultipleUENoExisteExcpetion"><rect codeLine="119" fill="#282828" height="28" id="TiqueteMultipleUENoExisteExcpetion" rx="2.5" ry="2.5" style="stroke:#FFB000;stroke-width:1.0;" width="282" x="236.5" y="623.7373"/><ellipse cx="249.5" cy="637.7373" fill="#282828" rx="9" ry="9" style="stroke:#FFB000;stroke-width:1.0;"/><path d="M252.2656,639.2686 L254.6563,640.0186 Q254.1094,642.0029 252.8281,642.9717 Q251.5625,643.9404 249.5938,643.9404 Q247.1719,643.9404 245.6094,642.2842 Q244.0625,640.6279 244.0625,637.7529 Q244.0625,634.7217 245.625,633.0498 Q247.1875,631.3623 249.75,631.3623 Q251.9844,631.3623 253.375,632.6748 Q254.2031,633.4561 254.625,634.9248 L252.1875,635.5029 Q251.9688,634.5498 251.2813,634.0029 Q250.6094,633.4561 249.625,633.4561 Q248.2656,633.4561 247.4219,634.4404 Q246.5938,635.4092 246.5938,637.5811 Q246.5938,639.8779 247.4219,640.8623 Q248.25,641.8467 249.5781,641.8467 Q250.5625,641.8467 251.2656,641.2217 Q251.9688,640.5967 252.2656,639.2686 Z " fill="#FFB000"/><text fill="#FFB000" font-family="Verdana" font-size="14" lengthAdjust="spacing" textLength="254" x="261.5" y="643.3052">TiqueteMultipleUENoExisteExcpetion</text></g><!--class VenueNoDisponibleException--><g id="elem_VenueNoDisponibleException"><rect codeLine="120" fill="#282828" height="28" id="VenueNoDisponibleException" rx="2.5" ry="2.5" style="stroke:#FFB000;stroke-width:1.0;" width="232" x="261.5" y="575.7373"/><ellipse cx="274.5" cy="589.7373" fill="#282828" rx="9" ry="9" style="stroke:#FFB000;stroke-width:1.0;"/><path d="M277.2656,591.2686 L279.6563,592.0186 Q279.1094,594.0029 277.8281,594.9717 Q276.5625,595.9404 274.5938,595.9404 Q272.1719,595.9404 270.6094,594.2842 Q269.0625,592.6279 269.0625,589.7529 Q269.0625,586.7217 270.625,585.0498 Q272.1875,583.3623 274.75,583.3623 Q276.9844,583.3623 278.375,584.6748 Q279.2031,585.4561 279.625,586.9248 L277.1875,587.5029 Q276.9688,586.5498 276.2813,586.0029 Q275.6094,585.4561 274.625,585.4561 Q273.2656,585.4561 272.4219,586.4404 Q271.5938,587.4092 271.5938,589.5811 Q271.5938,591.8779 272.4219,592.8623 Q273.25,593.8467 274.5781,593.8467 Q275.5625,593.8467 276.2656,593.2217 Q276.9688,592.5967 277.2656,591.2686 Z " fill="#FFB000"/><text fill="#FFB000" font-family="Verdana" font-size="14" lengthAdjust="spacing" textLength="204" x="286.5" y="595.3052">VenueNoDisponibleException</text></g><!--class UsuarioNoEncontradoException--><g id="elem_UsuarioNoEncontradoException"><rect codeLine="121" fill="#282828" height="28" id="UsuarioNoEncontradoException" rx="2.5" ry="2.5" style="stroke:#FFB000;stroke-width:1.0;" width="250" x="252.5" y="527.7373"/><ellipse cx="265.5" cy="541.7373" fill="#282828" rx="9" ry="9" style="stroke:#FFB000;stroke-width:1.0;"/><path d="M268.2656,543.2686 L270.6563,544.0186 Q270.1094,546.0029 268.8281,546.9717 Q267.5625,547.9404 265.5938,547.9404 Q263.1719,547.9404 261.6094,546.2842 Q260.0625,544.6279 260.0625,541.7529 Q260.0625,538.7217 261.625,537.0498 Q263.1875,535.3623 265.75,535.3623 Q267.9844,535.3623 269.375,536.6748 Q270.2031,537.4561 270.625,538.9248 L268.1875,539.5029 Q267.9688,538.5498 267.2813,538.0029 Q266.6094,537.4561 265.625,537.4561 Q264.2656,537.4561 263.4219,538.4404 Q262.5938,539.4092 262.5938,541.5811 Q262.5938,543.8779 263.4219,544.8623 Q264.25,545.8467 265.5781,545.8467 Q266.5625,545.8467 267.2656,545.2217 Q267.9688,544.5967 268.2656,543.2686 Z " fill="#FFB000"/><text fill="#FFB000" font-family="Verdana" font-size="14" lengthAdjust="spacing" textLength="222" x="277.5" y="547.3052">UsuarioNoEncontradoException</text></g><!--class TransferenciaNoPermitidaException--><g id="elem_TransferenciaNoPermitidaException"><rect codeLine="122" fill="#282828" height="28" id="TransferenciaNoPermitidaException" rx="2.5" ry="2.5" style="stroke:#FFB000;stroke-width:1.0;" width="274" x="240.5" y="479.7373"/><ellipse cx="253.5" cy="493.7373" fill="#282828" rx="9" ry="9" style="stroke:#FFB000;stroke-width:1.0;"/><path d="M256.2656,495.2686 L258.6563,496.0186 Q258.1094,498.0029 256.8281,498.9717 Q255.5625,499.9404 253.5938,499.9404 Q251.1719,499.9404 249.6094,498.2842 Q248.0625,496.6279 248.0625,493.7529 Q248.0625,490.7217 249.625,489.0498 Q251.1875,487.3623 253.75,487.3623 Q255.9844,487.3623 257.375,488.6748 Q258.2031,489.4561 258.625,490.9248 L256.1875,491.5029 Q255.9688,490.5498 255.2813,490.0029 Q254.6094,489.4561 253.625,489.4561 Q252.2656,489.4561 251.4219,490.4404 Q250.5938,491.4092 250.5938,493.5811 Q250.5938,495.8779 251.4219,496.8623 Q252.25,497.8467 253.5781,497.8467 Q254.5625,497.8467 255.2656,497.2217 Q255.9688,496.5967 256.2656,495.2686 Z " fill="#FFB000"/><text fill="#FFB000" font-family="Verdana" font-size="14" lengthAdjust="spacing" textLength="246" x="265.5" y="499.3052">TransferenciaNoPermitidaException</text></g><!--class TiqueteNoEncontradoException--><g id="elem_TiqueteNoEncontradoException"><rect codeLine="123" fill="#282828" height="28" id="TiqueteNoEncontradoException" rx="2.5" ry="2.5" style="stroke:#FFB000;stroke-width:1.0;" width="249" x="253" y="431.7373"/><ellipse cx="266" cy="445.7373" fill="#282828" rx="9" ry="9" style="stroke:#FFB000;stroke-width:1.0;"/><path d="M268.7656,447.2686 L271.1563,448.0186 Q270.6094,450.0029 269.3281,450.9717 Q268.0625,451.9404 266.0938,451.9404 Q263.6719,451.9404 262.1094,450.2842 Q260.5625,448.6279 260.5625,445.7529 Q260.5625,442.7217 262.125,441.0498 Q263.6875,439.3623 266.25,439.3623 Q268.4844,439.3623 269.875,440.6748 Q270.7031,441.4561 271.125,442.9248 L268.6875,443.5029 Q268.4688,442.5498 267.7813,442.0029 Q267.1094,441.4561 266.125,441.4561 Q264.7656,441.4561 263.9219,442.4404 Q263.0938,443.4092 263.0938,445.5811 Q263.0938,447.8779 263.9219,448.8623 Q264.75,449.8467 266.0781,449.8467 Q267.0625,449.8467 267.7656,449.2217 Q268.4688,448.5967 268.7656,447.2686 Z " fill="#FFB000"/><text fill="#FFB000" font-family="Verdana" font-size="14" lengthAdjust="spacing" textLength="221" x="278" y="451.3052">TiqueteNoEncontradoException</text></g><!--class CantidadTiquetesExcedidaException--><g id="elem_CantidadTiquetesExcedidaException"><rect codeLine="124" fill="#282828" height="28" id="CantidadTiquetesExcedidaException" rx="2.5" ry="2.5" style="stroke:#FFB000;stroke-width:1.0;" width="281" x="237" y="383.7373"/><ellipse cx="250" cy="397.7373" fill="#282828" rx="9" ry="9" style="stroke:#FFB000;stroke-width:1.0;"/><path d="M252.7656,399.2686 L255.1563,400.0186 Q254.6094,402.0029 253.3281,402.9717 Q252.0625,403.9404 250.0938,403.9404 Q247.6719,403.9404 246.1094,402.2842 Q244.5625,400.6279 244.5625,397.7529 Q244.5625,394.7217 246.125,393.0498 Q247.6875,391.3623 250.25,391.3623 Q252.4844,391.3623 253.875,392.6748 Q254.7031,393.4561 255.125,394.9248 L252.6875,395.5029 Q252.4688,394.5498 251.7813,394.0029 Q251.1094,393.4561 250.125,393.4561 Q248.7656,393.4561 247.9219,394.4404 Q247.0938,395.4092 247.0938,397.5811 Q247.0938,399.8779 247.9219,400.8623 Q248.75,401.8467 250.0781,401.8467 Q251.0625,401.8467 251.7656,401.2217 Q252.4688,400.5967 252.7656,399.2686 Z " fill="#FFB000"/><text fill="#FFB000" font-family="Verdana" font-size="14" lengthAdjust="spacing" textLength="253" x="262" y="403.3052">CantidadTiquetesExcedidaException</text></g><!--class OperacionNoAutorizadaException--><g id="elem_OperacionNoAutorizadaException"><rect codeLine="125" fill="#282828" height="28" id="OperacionNoAutorizadaException" rx="2.5" ry="2.5" style="stroke:#FFB000;stroke-width:1.0;" width="262" x="246.5" y="335.7373"/><ellipse cx="259.5" cy="349.7373" fill="#282828" rx="9" ry="9" style="stroke:#FFB000;stroke-width:1.0;"/><path d="M262.2656,351.2686 L264.6563,352.0186 Q264.1094,354.0029 262.8281,354.9717 Q261.5625,355.9404 259.5938,355.9404 Q257.1719,355.9404 255.6094,354.2842 Q254.0625,352.6279 254.0625,349.7529 Q254.0625,346.7217 255.625,345.0498 Q257.1875,343.3623 259.75,343.3623 Q261.9844,343.3623 263.375,344.6748 Q264.2031,345.4561 264.625,346.9248 L262.1875,347.5029 Q261.9688,346.5498 261.2813,346.0029 Q260.6094,345.4561 259.625,345.4561 Q258.2656,345.4561 257.4219,346.4404 Q256.5938,347.4092 256.5938,349.5811 Q256.5938,351.8779 257.4219,352.8623 Q258.25,353.8467 259.5781,353.8467 Q260.5625,353.8467 261.2656,353.2217 Q261.9688,352.5967 262.2656,351.2686 Z " fill="#FFB000"/><text fill="#FFB000" font-family="Verdana" font-size="14" lengthAdjust="spacing" textLength="234" x="271.5" y="355.3052">OperacionNoAutorizadaException</text></g><!--link Consola to ArchivoSerializable--><g id="link_Consola_ArchivoSerializable"><path codeLine="29" d="M118.76,885.7373 C165.06,885.7373 235.21,885.7373 292.76,885.7373 " fill="none" id="Consola-to-ArchivoSerializable" style="stroke:#FFB000;stroke-width:1.0;"/><polygon fill="#FFB000" points="298.76,885.7373,289.76,881.7373,293.76,885.7373,289.76,889.7373,298.76,885.7373" style="stroke:#FFB000;stroke-width:1.0;"/><text fill="#FFB000" font-family="Verdana" font-size="13" lengthAdjust="spacing" textLength="65" x="151.5" y="882.8071">usa datos</text></g><!--reverse link Usuario to Cliente--><g id="link_Usuario_Cliente"><path codeLine="55" d="M1249.64,1268.7373 C1311.21,1268.7373 1410.93,1268.7373 1470.71,1268.7373 " fill="none" id="Usuario-backto-Cliente" style="stroke:#FFB000;stroke-width:1.0;"/><polygon fill="none" points="1231.64,1268.7373,1249.64,1274.7373,1249.64,1262.7373,1231.64,1268.7373" style="stroke:#FFB000;stroke-width:1.0;"/></g><!--reverse link Usuario to Organizador--><g id="link_Usuario_Organizador"><path codeLine="56" d="M1249.2916,1257.2927 C1304.7316,1246.2227 1388.07,1229.5873 1451.27,1216.9673 " fill="none" id="Usuario-backto-Organizador" style="stroke:#FFB000;stroke-width:1.0;"/><polygon fill="none" points="1231.64,1260.8173,1250.4664,1263.1766,1248.1167,1251.4089,1231.64,1260.8173" style="stroke:#FFB000;stroke-width:1.0;"/></g><!--reverse link Solicitud to SolicitudCalamidad--><g id="link_Solicitud_SolicitudCalamidad"><path codeLine="57" d="M139.3685,1219.1857 C169.8885,1224.2357 193.71,1227.8973 230.5,1232.7373 C343.44,1247.5973 474.67,1260.8173 556.16,1268.5573 " fill="none" id="Solicitud-backto-SolicitudCalamidad" style="stroke:#FFB000;stroke-width:1.0;"/><polygon fill="none" points="121.61,1216.2473,138.3891,1225.1052,140.348,1213.2662,121.61,1216.2473" style="stroke:#FFB000;stroke-width:1.0;"/></g><!--reverse link Solicitud to SolicitudVenue--><g id="link_Solicitud_SolicitudVenue"><path codeLine="58" d="M139.62,1208.7373 C189.81,1208.7373 254.26,1208.7373 311.74,1208.7373 " fill="none" id="Solicitud-backto-SolicitudVenue" style="stroke:#FFB000;stroke-width:1.0;"/><polygon fill="none" points="121.62,1208.7373,139.62,1214.7373,139.62,1202.7373,121.62,1208.7373" style="stroke:#FFB000;stroke-width:1.0;"/></g><!--reverse link Solicitud to SolicitudCancelacionEvento--><g id="link_Solicitud_SolicitudCancelacionEvento"><path codeLine="59" d="M139.245,1197.3529 C169.725,1191.9629 193.58,1188.4173 230.5,1184.7373 C403.82,1167.4773 606.33,1164.1873 727.43,1164.0073 " fill="none" id="Solicitud-backto-SolicitudCancelacionEvento" style="stroke:#FFB000;stroke-width:1.0;"/><polygon fill="none" points="121.52,1200.4873,140.2898,1203.2612,138.2002,1191.4445,121.52,1200.4873" style="stroke:#FFB000;stroke-width:1.0;"/></g><!--link Evento to Venue--><g id="link_Evento_Venue"><path codeLine="62" d="M1229.52,1167.1073 C1257.72,1156.7173 1297.24,1141.8273 1331.5,1127.7373 C1383.12,1106.5073 1436.837,1082.2904 1471.737,1066.2704 " fill="none" id="Evento-to-Venue" style="stroke:#FFB000;stroke-width:1.0;"/><polygon fill="#FFB000" points="1477.19,1063.7673,1467.3419,1063.8866,1472.6459,1065.8532,1470.6793,1071.1572,1477.19,1063.7673" style="stroke:#FFB000;stroke-width:1.0;"/><text fill="#FFB000" font-family="Verdana" font-size="13" lengthAdjust="spacing" textLength="23" x="1377.5" y="1079.8071">usa</text></g><!--link Evento to Organizador--><g id="link_Evento_Organizador"><path codeLine="63" d="M1229.74,1183.7273 C1284.78,1188.0873 1381.4687,1195.7538 1445.3887,1200.8138 " fill="none" id="Evento-to-Organizador" style="stroke:#FFB000;stroke-width:1.0;"/><polygon fill="#FFB000" points="1451.37,1201.2873,1442.7137,1196.5895,1446.3856,1200.8927,1442.0824,1204.5646,1451.37,1201.2873" style="stroke:#FFB000;stroke-width:1.0;"/><text fill="#FFB000" font-family="Verdana" font-size="13" lengthAdjust="spacing" textLength="97" x="1340.5" y="1189.8071">organizado por</text></g><!--link Localidad to Evento--><g id="link_Localidad_Evento"><path codeLine="64" d="M882.45,1001.2873 C940.75,1004.2673 1037.27,1012.9173 1061.5,1037.7373 C1089.73,1066.6573 1050.3,1095.3673 1074.5,1127.7373 C1093.13,1152.6473 1120.4845,1164.6075 1146.5045,1171.7575 " fill="none" id="Localidad-to-Evento" style="stroke:#FFB000;stroke-width:1.0;"/><polygon fill="#FFB000" points="1152.29,1173.3473,1144.6716,1167.1056,1147.4687,1172.0225,1142.5518,1174.8196,1152.29,1173.3473" style="stroke:#FFB000;stroke-width:1.0;"/><text fill="#FFB000" font-family="Verdana" font-size="13" lengthAdjust="spacing" textLength="80" x="969.5" y="1005.8071">pertenece a</text></g><!--link Localidad to Venue--><g id="link_Localidad_Venue"><path codeLine="65" d="M882.11,993.7073 C904.7,990.9873 932.5,988.0773 957.5,986.7373 C1152.8,976.2373 1379.2923,1020.9384 1466.3723,1040.2484 " fill="none" id="Localidad-to-Venue" style="stroke:#FFB000;stroke-width:1.0;"/><polygon fill="#FFB000" points="1472.23,1041.5473,1464.3094,1035.6937,1467.3486,1040.4648,1462.5775,1043.504,1472.23,1041.5473" style="stroke:#FFB000;stroke-width:1.0;"/><text fill="#FFB000" font-family="Verdana" font-size="13" lengthAdjust="spacing" textLength="72" x="1155" y="983.8071">ubicada en</text></g><!--link BoletasMaster to Evento--><g id="link_BoletasMaster_Evento"><path codeLine="67" d="M851.6,1062.8273 C872.99,1082.6273 914.95,1118.2973 957.5,1136.7373 C959.74,1137.7073 1081.1619,1160.4363 1146.4119,1172.6163 " fill="none" id="BoletasMaster-to-Evento" style="stroke:#FFB000;stroke-width:1.0;"/><polygon fill="#FFB000" points="1152.31,1173.7173,1144.1968,1168.1337,1147.3949,1172.7998,1142.7288,1175.9979,1152.31,1173.7173" style="stroke:#FFB000;stroke-width:1.0;"/><text fill="#FFB000" font-family="Verdana" font-size="13" lengthAdjust="spacing" textLength="70" x="974.5" y="1133.8071">gestiona *</text></g><!--link BoletasMaster to Venue--><g id="link_BoletasMaster_Venue"><path codeLine="68" d="M899.78,1041.9173 C918.34,1040.1973 938.72,1038.5973 957.5,1037.7373 C1058.28,1033.1473 1361.2544,1044.0765 1466.2044,1048.1165 " fill="none" id="BoletasMaster-to-Venue" style="stroke:#FFB000;stroke-width:1.0;"/><polygon fill="#FFB000" points="1472.2,1048.3473,1463.3605,1044.0041,1467.2037,1048.155,1463.0528,1051.9982,1472.2,1048.3473" style="stroke:#FFB000;stroke-width:1.0;"/><text fill="#FFB000" font-family="Verdana" font-size="13" lengthAdjust="spacing" textLength="70" x="1156" y="1034.8071">gestiona *</text></g><!--link BoletasMaster to Administrador--><g id="link_BoletasMaster_Administrador"><path codeLine="69" d="M899.72,1053.2373 C944.91,1057.0173 1007.24,1063.3373 1061.5,1072.7373 C1087.05,1077.1673 1109.2652,1082.2481 1132.6152,1088.1881 " fill="none" id="BoletasMaster-to-Administrador" style="stroke:#FFB000;stroke-width:1.0;"/><polygon fill="#FFB000" points="1138.43,1089.6673,1130.694,1083.5719,1133.5843,1088.4346,1128.7217,1091.325,1138.43,1089.6673" style="stroke:#FFB000;stroke-width:1.0;"/><text fill="#FFB000" font-family="Verdana" font-size="13" lengthAdjust="spacing" textLength="80" x="969.5" y="1056.8071">administra 1</text></g><!--link BoletasMaster to Usuario--><g id="link_BoletasMaster_Usuario"><path codeLine="70" d="M859.91,1062.9273 C884.12,1079.0173 921.88,1107.4073 944.5,1140.7373 C954.52,1155.5073 944.03,1167.0273 957.5,1178.7373 C993.02,1209.6173 1017.19,1182.8473 1061.5,1198.7373 C1072.2,1202.5773 1125.5337,1232.3201 1159.7937,1251.6401 " fill="none" id="BoletasMaster-to-Usuario" style="stroke:#FFB000;stroke-width:1.0;"/><polygon fill="#FFB000" points="1165.02,1254.5873,1159.1454,1246.6823,1160.6648,1252.1313,1155.2158,1253.6507,1165.02,1254.5873" style="stroke:#FFB000;stroke-width:1.0;"/><text fill="#FFB000" font-family="Verdana" font-size="13" lengthAdjust="spacing" textLength="102" x="958.5" y="1175.8071">usuarioActual 1</text></g><!--link SolicitudCalamidad to Usuario--><g id="link_SolicitudCalamidad_Usuario"><path codeLine="72" d="M714.54,1282.2073 C799.86,1288.2473 940.56,1295.1673 1061.5,1286.7373 C1091.5,1284.6473 1119.2378,1280.8002 1144.5778,1276.6802 " fill="none" id="SolicitudCalamidad-to-Usuario" style="stroke:#FFB000;stroke-width:1.0;"/><polygon fill="#FFB000" points="1150.5,1275.7173,1140.9747,1273.2135,1145.5648,1276.5197,1142.2586,1281.1098,1150.5,1275.7173" style="stroke:#FFB000;stroke-width:1.0;"/><text fill="#FFB000" font-family="Verdana" font-size="13" lengthAdjust="spacing" textLength="68" x="802" y="1279.8071">solicitante</text></g><!--link SolicitudVenue to Usuario--><g id="link_SolicitudVenue_Usuario"><path codeLine="73" d="M443.46,1207.8973 C573.64,1207.2973 861.12,1211.7473 944.5,1260.7373 C953.32,1265.9173 948.45,1274.9673 957.5,1279.7373 C989.85,1296.7973 1086.7496,1285.1485 1144.2196,1276.3185 " fill="none" id="SolicitudVenue-to-Usuario" style="stroke:#FFB000;stroke-width:1.0;"/><polygon fill="#FFB000" points="1150.15,1275.4073,1140.6469,1272.8205,1145.208,1276.1666,1141.8618,1280.7277,1150.15,1275.4073" style="stroke:#FFB000;stroke-width:1.0;"/><text fill="#FFB000" font-family="Verdana" font-size="13" lengthAdjust="spacing" textLength="68" x="802" y="1214.8071">solicitante</text></g><!--link SolicitudCancelacionEvento to Usuario--><g id="link_SolicitudCancelacionEvento_Usuario"><path codeLine="74" d="M924.05,1178.7373 C931.65,1182.6373 938.66,1187.5573 944.5,1193.7373 C963.83,1214.2073 936.15,1237.3873 957.5,1255.7373 C985.48,1279.7873 1085.7343,1276.5612 1144.4443,1272.5012 " fill="none" id="SolicitudCancelacionEvento-to-Usuario" style="stroke:#FFB000;stroke-width:1.0;"/><polygon fill="#FFB000" points="1150.43,1272.0873,1141.1755,1268.7177,1145.4419,1272.4322,1141.7274,1276.6987,1150.43,1272.0873" style="stroke:#FFB000;stroke-width:1.0;"/><text fill="#FFB000" font-family="Verdana" font-size="13" lengthAdjust="spacing" textLength="68" x="975.5" y="1252.8071">solicitante</text></g><!--link SolicitudVenue to BoletasMaster--><g id="link_SolicitudVenue_BoletasMaster"><path codeLine="75" d="M418.61,1194.6773 C505.09,1164.3673 702.6078,1095.1422 789.1578,1064.8022 " fill="none" id="SolicitudVenue-to-BoletasMaster" style="stroke:#FFB000;stroke-width:1.0;"/><polygon fill="#FFB000" points="794.82,1062.8173,785.0035,1062.0198,790.1015,1064.4714,787.65,1069.5694,794.82,1062.8173" style="stroke:#FFB000;stroke-width:1.0;"/><text fill="#FFB000" font-family="Verdana" font-size="13" lengthAdjust="spacing" textLength="50" x="610.5" y="1088.8071">sistema</text></g><!--link SolicitudCancelacionEvento to Administrador--><g id="link_SolicitudCancelacionEvento_Administrador"><path codeLine="76" d="M863.4,1150.6473 C887.25,1138.6873 923.68,1122.3073 957.5,1114.7373 C1013.89,1102.1073 1073.8307,1100.0633 1121.0507,1100.8033 " fill="none" id="SolicitudCancelacionEvento-to-Administrador" style="stroke:#FFB000;stroke-width:1.0;"/><polygon fill="#FFB000" points="1127.05,1100.8973,1118.1138,1096.7568,1122.0506,1100.819,1117.9884,1104.7558,1127.05,1100.8973" style="stroke:#FFB000;stroke-width:1.0;"/><text fill="#FFB000" font-family="Verdana" font-size="13" lengthAdjust="spacing" textLength="53" x="983" y="1099.8071">aprueba</text></g><!--link SolicitudCancelacionEvento to Evento--><g id="link_SolicitudCancelacionEvento_Evento"><path codeLine="77" d="M917.59,1178.7873 C927.23,1182.6273 936.48,1187.5173 944.5,1193.7373 C953.78,1200.9373 947.36,1210.8173 957.5,1216.7373 C1024.18,1255.6373 1113.767,1220.1677 1158.897,1197.5277 " fill="none" id="SolicitudCancelacionEvento-to-Evento" style="stroke:#FFB000;stroke-width:1.0;"/><polygon fill="#FFB000" points="1164.26,1194.8373,1154.4219,1195.2976,1159.7908,1197.0793,1158.0091,1202.4482,1164.26,1194.8373" style="stroke:#FFB000;stroke-width:1.0;"/><text fill="#FFB000" font-family="Verdana" font-size="13" lengthAdjust="spacing" textLength="46" x="986.5" y="1213.8071">evento</text></g><!--reverse link Tiquete to TiqueteBasico--><g id="link_Tiquete_TiqueteBasico"><path codeLine="94" d="M886.1232,1405.6817 C910.1032,1415.6417 927.08,1421.8573 957.5,1430.7373 C1014.47,1447.3773 1080.91,1460.4873 1128.15,1468.7673 " fill="none" id="Tiquete-backto-TiqueteBasico" style="stroke:#FFB000;stroke-width:1.0;"/><polygon fill="none" points="869.5,1398.7773,883.8217,1411.2227,888.4246,1400.1406,869.5,1398.7773" style="stroke:#FFB000;stroke-width:1.0;"/></g><!--reverse link Tiquete to TiqueteEnumerado--><g id="link_Tiquete_TiqueteEnumerado"><path codeLine="95" d="M893.8821,1401.2231 C917.2321,1407.6631 930.13,1410.4273 957.5,1414.7373 C1008.16,1422.7273 1065.65,1426.7273 1110.79,1428.7273 " fill="none" id="Tiquete-backto-TiqueteEnumerado" style="stroke:#FFB000;stroke-width:1.0;"/><polygon fill="none" points="876.53,1396.4373,892.2869,1407.0071,895.4774,1395.439,876.53,1396.4373" style="stroke:#FFB000;stroke-width:1.0;"/></g><!--reverse link Tiquete to TiqueteDeluxe--><g id="link_Tiquete_TiqueteDeluxe"><path codeLine="96" d="M894.2576,1397.528 C917.6476,1402.428 930.28,1404.2773 957.5,1406.7373 C1003.53,1410.9073 1015.47,1410.9973 1061.5,1406.7373 C1083.19,1404.7273 1106.69,1400.8473 1127.58,1396.7873 " fill="none" id="Tiquete-backto-TiqueteDeluxe" style="stroke:#FFB000;stroke-width:1.0;"/><polygon fill="none" points="876.64,1393.8373,893.0273,1403.4006,895.4878,1391.6555,876.64,1393.8373" style="stroke:#FFB000;stroke-width:1.0;"/></g><!--link TiqueteDeluxe to Tiquete--><g id="link_TiqueteDeluxe_Tiquete"><path codeLine="104" d="M1126.86,1383.0973 C1054.38,1383.5073 943.6599,1384.1338 882.8099,1384.4738 " fill="none" id="TiqueteDeluxe-to-Tiquete" style="stroke:#FFB000;stroke-width:1.0;"/><polygon fill="#FFB000" points="876.81,1384.5073,885.8322,1388.457,881.8099,1384.4794,885.7875,1380.4571,876.81,1384.5073" style="stroke:#FFB000;stroke-width:1.0;"/><text fill="#FFB000" font-family="Verdana" font-size="13" lengthAdjust="spacing" textLength="74" x="972.5" y="1379.8071">cortes&#237;as *</text></g><!--reverse link TiqueteMultiple to TiqueteMultipleUnicoEvento--><g id="link_TiqueteMultiple_TiqueteMultipleUnicoEvento"><path codeLine="97" d="M922.4758,1538.3627 C974.0258,1545.3727 1028.07,1552.7173 1086.79,1560.7073 " fill="none" id="TiqueteMultiple-backto-TiqueteMultipleUnicoEvento" style="stroke:#FFB000;stroke-width:1.0;"/><polygon fill="none" points="904.64,1535.9373,921.6674,1544.308,923.2843,1532.4174,904.64,1535.9373" style="stroke:#FFB000;stroke-width:1.0;"/></g><!--reverse link TiqueteMultiple to TiqueteMultipleVariosEventos--><g id="link_TiqueteMultiple_TiqueteMultipleVariosEventos"><path codeLine="98" d="M922.64,1526.7373 C970.59,1526.7373 1018.12,1526.7373 1074.29,1526.7373 " fill="none" id="TiqueteMultiple-backto-TiqueteMultipleVariosEventos" style="stroke:#FFB000;stroke-width:1.0;"/><polygon fill="none" points="904.64,1526.7373,922.64,1532.7373,922.64,1520.7373,904.64,1526.7373" style="stroke:#FFB000;stroke-width:1.0;"/></g><!--link Tiquete to Evento--><g id="link_Tiquete_Evento"><path codeLine="101" d="M867.13,1370.7273 C928.14,1342.3673 1060.6,1280.7073 1061.5,1279.7373 C1072.74,1267.5373 1063.68,1257.3173 1074.5,1244.7373 C1095.2,1220.6673 1121.7596,1206.1862 1146.8696,1195.8762 " fill="none" id="Tiquete-to-Evento" style="stroke:#FFB000;stroke-width:1.0;"/><polygon fill="#FFB000" points="1152.42,1193.5973,1142.5752,1193.3155,1147.7947,1195.4964,1145.6138,1200.7159,1152.42,1193.5973" style="stroke:#FFB000;stroke-width:1.0;"/></g><!--link Tiquete to Localidad--><g id="link_Tiquete_Localidad"><path codeLine="102" d="M795.34,1379.4873 C748.25,1370.9973 672.7,1349.3773 638,1295.7373 C574.99,1198.3373 563.46,1123.6173 638,1034.7373 C674.23,991.5473 737.5718,988.4066 783.8118,992.3566 " fill="none" id="Tiquete-to-Localidad" style="stroke:#FFB000;stroke-width:1.0;"/><polygon fill="#FFB000" points="789.79,992.8673,781.1631,988.1158,784.8081,992.4417,780.4822,996.0868,789.79,992.8673" style="stroke:#FFB000;stroke-width:1.0;"/></g><!--link Tiquete to Usuario--><g id="link_Tiquete_Usuario"><path codeLine="103" d="M876.64,1377.5573 C922.06,1368.7573 998.36,1352.1973 1061.5,1329.7373 C1098.26,1316.6573 1133.289,1299.2979 1158.789,1285.7779 " fill="none" id="Tiquete-to-Usuario" style="stroke:#FFB000;stroke-width:1.0;"/><polygon fill="#FFB000" points="1164.09,1282.9673,1154.2648,1283.6492,1159.6725,1285.3094,1158.0122,1290.7172,1164.09,1282.9673" style="stroke:#FFB000;stroke-width:1.0;"/></g><!--reverse link Exception to TransferirTiqueteDeluxeException--><g id="link_Exception_TransferirTiqueteDeluxeException"><path codeLine="128" d="M102.9911,418.2817 C127.5911,392.3217 171.19,351.0373 230.5,325.7373 C239.71,321.8073 249.51,318.5173 259.5,315.7673 " fill="none" id="Exception-backto-TransferirTiqueteDeluxeException" style="stroke:#FFB000;stroke-width:1.0;"/><polygon fill="none" points="90.61,431.3473,107.3463,422.4088,98.6359,414.1547,90.61,431.3473" style="stroke:#FFB000;stroke-width:1.0;"/></g><!--reverse link Exception to SaldoInsuficienteException--><g id="link_Exception_SaldoInsuficienteException"><path codeLine="129" d="M93.7925,416.0265 C112.7925,382.1365 157.78,311.7373 230.5,277.7373 C242.6,272.0773 255.81,267.7273 269.18,264.3873 " fill="none" id="Exception-backto-SaldoInsuficienteException" style="stroke:#FFB000;stroke-width:1.0;"/><polygon fill="none" points="84.99,431.7273,99.0261,418.9606,88.5589,413.0923,84.99,431.7273" style="stroke:#FFB000;stroke-width:1.0;"/></g><!--reverse link Exception to TiqueteVencidoFecha--><g id="link_Exception_TiqueteVencidoFecha"><path codeLine="130" d="M88.1519,414.5233 C102.5019,373.6433 144.23,272.9773 230.5,229.7373 C248.64,220.6473 269.49,214.8773 289.65,211.2473 " fill="none" id="Exception-backto-TiqueteVencidoFecha" style="stroke:#FFB000;stroke-width:1.0;"/><polygon fill="none" points="82.19,431.5073,93.8132,416.5106,82.4905,412.536,82.19,431.5073" style="stroke:#FFB000;stroke-width:1.0;"/></g><!--reverse link Exception to TiqueteUsadoException--><g id="link_Exception_TiqueteUsadoException"><path codeLine="131" d="M84.0308,414.0667 C94.0508,367.2967 129.65,234.6673 230.5,181.7373 C245.97,173.6173 263.52,168.1173 280.95,164.4173 " fill="none" id="Exception-backto-TiqueteUsadoException" style="stroke:#FFB000;stroke-width:1.0;"/><polygon fill="none" points="80.26,431.6673,89.8976,415.3236,78.1639,412.8098,80.26,431.6673" style="stroke:#FFB000;stroke-width:1.0;"/></g><!--reverse link Exception to TiqueteMultipleVENoExisteExcpetion--><g id="link_Exception_TiqueteMultipleVENoExisteExcpetion"><path codeLine="132" d="M82.5577,413.8253 C88.7177,376.3253 106.01,289.9273 150.5,215.7373 C176.69,172.0673 185.35,157.2673 230.5,133.7373 C237.9,129.8773 245.78,126.6173 253.89,123.8573 " fill="none" id="Exception-backto-TiqueteMultipleVENoExisteExcpetion" style="stroke:#FFB000;stroke-width:1.0;"/><polygon fill="none" points="79.64,431.5873,88.4783,414.7979,76.637,412.8528,79.64,431.5873" style="stroke:#FFB000;stroke-width:1.0;"/></g><!--reverse link Exception to PasswordIncorrectoException--><g id="link_Exception_PasswordIncorrectoException"><path codeLine="133" d="M77.9795,478.0229 C78.9395,521.2629 86.84,634.5973 150.5,714.7373 C176.78,747.8273 218.63,765.1173 259.21,773.9773 " fill="none" id="Exception-backto-PasswordIncorrectoException" style="stroke:#FFB000;stroke-width:1.0;"/><polygon fill="none" points="77.58,460.0273,71.981,478.156,83.9781,477.8897,77.58,460.0273" style="stroke:#FFB000;stroke-width:1.0;"/></g><!--reverse link Exception to ReembolsoNoPermitidoException--><g id="link_Exception_ReembolsoNoPermitidoException"><path codeLine="134" d="M80.8358,477.6852 C84.9958,514.7852 98.76,599.0173 150.5,662.7373 C174.74,692.5873 211.42,710.1073 248.22,720.3173 " fill="none" id="Exception-backto-ReembolsoNoPermitidoException" style="stroke:#FFB000;stroke-width:1.0;"/><polygon fill="none" points="78.83,459.7973,74.8731,478.3538,86.7984,477.0166,78.83,459.7973" style="stroke:#FFB000;stroke-width:1.0;"/></g><!--reverse link Exception to CapacidadLocalidadExcedidaException--><g id="link_Exception_CapacidadLocalidadExcedidaException"><path codeLine="135" d="M84.6319,477.466 C91.8919,508.566 108.76,566.1673 150.5,613.7373 C176.84,643.7673 215.67,661.3773 253.74,671.6673 " fill="none" id="Exception-backto-CapacidadLocalidadExcedidaException" style="stroke:#FFB000;stroke-width:1.0;"/><polygon fill="none" points="80.54,459.9373,78.789,478.83,90.4748,476.1021,80.54,459.9373" style="stroke:#FFB000;stroke-width:1.0;"/></g><!--reverse link Exception to TiqueteMultipleUENoExisteExcpetion--><g id="link_Exception_TiqueteMultipleUENoExisteExcpetion"><path codeLine="136" d="M90.9106,476.458 C101.6206,500.398 118.44,532.6973 150.5,564.7373 C179.99,594.2073 191.42,599.1973 230.5,613.7373 C241.09,617.6773 252.36,620.9773 263.75,623.7273 " fill="none" id="Exception-backto-TiqueteMultipleUENoExisteExcpetion" style="stroke:#FFB000;stroke-width:1.0;"/><polygon fill="none" points="83.56,460.0273,85.4337,478.9082,96.3875,474.0078,83.56,460.0273" style="stroke:#FFB000;stroke-width:1.0;"/></g><!--reverse link Exception to VenueNoDisponibleException--><g id="link_Exception_VenueNoDisponibleException"><path codeLine="137" d="M102.5524,472.8694 C126.9224,498.7394 170.78,540.5473 230.5,565.7373 C240.32,569.8773 250.8,573.3073 261.45,576.1473 " fill="none" id="Exception-backto-VenueNoDisponibleException" style="stroke:#FFB000;stroke-width:1.0;"/><polygon fill="none" points="90.21,459.7673,98.185,476.9835,106.9198,468.7553,90.21,459.7673" style="stroke:#FFB000;stroke-width:1.0;"/></g><!--reverse link Exception to UsuarioNoEncontradoException--><g id="link_Exception_UsuarioNoEncontradoException"><path codeLine="138" d="M130.7382,466.3073 C165.9382,480.1073 199.69,494.1973 217.5,505.7373 C224.1,510.0173 223.43,514.2873 230.5,517.7373 C238.46,521.6273 246.93,524.8973 255.63,527.6573 " fill="none" id="Exception-backto-UsuarioNoEncontradoException" style="stroke:#FFB000;stroke-width:1.0;"/><polygon fill="none" points="113.98,459.7373,128.5482,471.8933,132.9281,460.7212,113.98,459.7373" style="stroke:#FFB000;stroke-width:1.0;"/></g><!--reverse link Exception to TransferenciaNoPermitidaException--><g id="link_Exception_TransferenciaNoPermitidaException"><path codeLine="139" d="M142.9822,456.2517 C187.0022,463.3217 235.68,471.1273 289.19,479.7173 " fill="none" id="Exception-backto-TransferenciaNoPermitidaException" style="stroke:#FFB000;stroke-width:1.0;"/><polygon fill="none" points="125.21,453.3973,142.0308,462.1758,143.9337,450.3276,125.21,453.3973" style="stroke:#FFB000;stroke-width:1.0;"/></g><!--reverse link Exception to TiqueteNoEncontradoException--><g id="link_Exception_TiqueteNoEncontradoException"><path codeLine="140" d="M143.21,445.7373 C177.67,445.7373 207.87,445.7373 252.85,445.7373 " fill="none" id="Exception-backto-TiqueteNoEncontradoException" style="stroke:#FFB000;stroke-width:1.0;"/><polygon fill="none" points="125.21,445.7373,143.21,451.7373,143.21,439.7373,125.21,445.7373" style="stroke:#FFB000;stroke-width:1.0;"/></g><!--reverse link Exception to CantidadTiquetesExcedidaException--><g id="link_Exception_CantidadTiquetesExcedidaException"><path codeLine="141" d="M142.9822,435.2229 C187.0022,428.1529 235.68,420.3473 289.19,411.7573 " fill="none" id="Exception-backto-CantidadTiquetesExcedidaException" style="stroke:#FFB000;stroke-width:1.0;"/><polygon fill="none" points="125.21,438.0773,143.9337,441.147,142.0308,429.2988,125.21,438.0773" style="stroke:#FFB000;stroke-width:1.0;"/></g><!--reverse link Exception to OperacionNoAutorizadaException--><g id="link_Exception_OperacionNoAutorizadaException"><path codeLine="142" d="M117.5523,422.9412 C147.0523,406.5412 182.98,388.5073 230.5,373.7373 C243.01,369.8473 256.33,366.5573 269.64,363.7773 " fill="none" id="Exception-backto-OperacionNoAutorizadaException" style="stroke:#FFB000;stroke-width:1.0;"/><polygon fill="none" points="101.82,431.6873,120.4677,428.1853,114.6369,417.6971,101.82,431.6873" style="stroke:#FFB000;stroke-width:1.0;"/></g><!--link Consola to BoletasMaster--><g id="link_Consola_BoletasMaster"><path codeLine="148" d="M118.55,898.2973 C149.24,907.5073 192.33,920.0473 230.5,929.7373 C374.32,966.2573 410.85,973.3873 556.5,1001.7373 C630.38,1016.1173 709.8634,1029.2214 766.4134,1038.1514 " fill="none" id="Consola-to-BoletasMaster" style="stroke:#FFB000;stroke-width:1.0;"/><polygon fill="#FFB000" points="772.34,1039.0873,764.0741,1033.7324,767.4012,1038.3074,762.8262,1041.6345,772.34,1039.0873" style="stroke:#FFB000;stroke-width:1.0;"/><text fill="#FFB000" font-family="Verdana" font-size="13" lengthAdjust="spacing" textLength="50" x="352.5" y="926.8071">sistema</text></g><!--link ArchivoSerializable to BoletasMaster--><g id="link_ArchivoSerializable_BoletasMaster"><path codeLine="149" d="M456.27,896.1573 C529.83,909.4673 639.8,938.6973 714.5,1000.7373 C723.53,1008.2373 718.1,1016.6973 727.5,1023.7373 C740.46,1033.4373 750.7393,1038.0841 766.5193,1041.7941 " fill="none" id="ArchivoSerializable-to-BoletasMaster" style="stroke:#FFB000;stroke-width:1.0;"/><polygon fill="#FFB000" points="772.36,1043.1673,764.5144,1037.2137,767.4927,1042.023,762.6834,1045.0013,772.36,1043.1673" style="stroke:#FFB000;stroke-width:1.0;"/><text fill="#FFB000" font-family="Verdana" font-size="13" lengthAdjust="spacing" textLength="79" x="596" y="919.8071">persistencia</text></g><!--link SolicitudCalamidad to Tiquete--><g id="link_SolicitudCalamidad_Tiquete"><path codeLine="150" d="M662.04,1289.7673 C700.05,1310.6373 765.8406,1346.7597 803.9806,1367.6997 " fill="none" id="SolicitudCalamidad-to-Tiquete" style="stroke:#FFB000;stroke-width:1.0;"/><polygon fill="#FFB000" points="809.24,1370.5873,803.2759,1362.7496,804.8571,1368.181,799.4258,1369.7622,809.24,1370.5873" style="stroke:#FFB000;stroke-width:1.0;"/></g><!--link SolicitudCalamidad to TiqueteMultiple--><g id="link_SolicitudCalamidad_TiqueteMultiple"><path codeLine="151" d="M645.19,1289.7773 C660.72,1314.5373 694.69,1367.2773 727.5,1408.7373 C758.63,1448.0673 795.2761,1486.4863 816.5361,1508.1363 " fill="none" id="SolicitudCalamidad-to-TiqueteMultiple" style="stroke:#FFB000;stroke-width:1.0;"/><polygon fill="#FFB000" points="820.74,1512.4173,817.2882,1503.1932,817.2367,1508.8498,811.5801,1508.7984,820.74,1512.4173" style="stroke:#FFB000;stroke-width:1.0;"/></g><!--SRC=[bLTBZkCs4Dtx59NPf6S03v80sJGo0JJ-80RSTiDkzvwMgcscAL8XgVua6I27o3LcDRlP-YOvIOeIhPybsTEBXibwzMCzLb7VsJt62A6sGnPlKGyijmBXen9esGqp5ZNyzy-_CEPifrdC82AmO0ODN0NpkoKiPlUJ-Tl1u7luqFf7Wk3tbEmOUE8cPG9DDrRWWmMhGFFTtaB4DOQMApdOSt8RezshoEGBPgtcsvJC3imZbmcZu21XuIFRuTg-KWfEbycTm0f0i5ULMlXh0B30vpcNE5LwgfJTgXUmEaKIh5cCOnKpBbTCFkQxdoesDEqQJE2ddokRKaMORVxGUnBJsJo0zUPsifejLt2LQ5AIbeNyy4N2AoIe3QUZaY5dRxlj-3JXJQclv9iiArSQ0oCbZHACmgvWAxQhs427U_wargWv4_nFjXKktO4t0SD8FSlXhsqmk8RK426OLUPyrZUJyIo0Atdu6WfK80vVTZnKbsGf526pc2beObDe5ULDlzdMMCr2wpFP4BiqL-Kf24w7WyLwgNTCKkYHqcNsKSmbTsRSRcQVQazR2XBDwQmI9WfmVYbCVYkAtSaJUIcztgDCIvzp5T9nHIpARQ-Lu26tQTGMVo4ij8kT4HCipioSYEh-AXeoH94nmmUO1V0Rwem1faml2yMV7Vpozt1OERZQTlty2a-vi3NKBimnvcuRhS6l_1wr4ihsoLd8nJ0aXcP6SqxM1PMuIQoA5IHP8aM9Ch3NktPtaIuBXjHgJa2vA-ThIyoC6A1q4TRuKRUsG-CQ6ODthRZ2u1bSZQu4PyKQVcnLE1RG7KlsYsuFzM12Lu-_g5b3n-G0bfEXNhxBe2UL_5OFzPH8mVMmc9ttSN9K2JNoxGMAHSqmfzwdyxrjjfZwZcxv7ocwMVSA-19YajFraYvtrFHzhj4Rxd9fSS_z-YCpr4IRknEPnkZoxhHpamhB4t5YxxY_aMIsqTWQa7jNGPDZJ1CqHf6-OAFbqCgBy-lUpA5DM4sbJUuTGJEw6gWzgqiqwacUD26TKX-f9UO8bC-hzqr7LLav5bh5vIIhfPb1Zl1h21LrA7FuJCtyNMtKLvZdsUGdbTlFtbDblUWrOnvegEkQfn9P31Oc8ZMJ9dsWk-Ecmod4MxXtrOxK5CCzQyesXahPgLcS-cH187VH2PfW3NfB_vwLZcQIqdTFl1PpAyHuguHH2tMBEkQMjpaTCJemLuEY60uJqO-p0Mvw0inQrqADkKcKvFHCEhNcoqisA0cPTQWMbxuosTqf4-aEhjySzJgd7NcmwSvrIPClO_X21IazjToiP3Ngb7UQE1WVlZhT0k3lqNbUDJHw2TQqtigqTj09vTfX_TnhwFIJi04-nyO6_39QzYUnkII9Ng8si6SOsr7yFkgs9t2XWql8t50vm-h-8R-Qp8FHRBcOh66ok5jDO1JS1kjkZUBZgMpfNU-Ojk-g7hNgLzp0OpgUSSS7nVjoOlYjm2XIfvdwRGQAINbYw6RmFm00]--></g></svg>